<?xml version="1.0" encoding="iso-8859-1"?>
<!-- Generator: Adobe Illustrator 18.1.1, SVG Export Plug-In . SVG Version: 6.00 Build 0)  -->
<svg version="1.1" id="_x31_" xmlns="http://www.w3.org/2000/svg" xmlns:xlink="http://www.w3.org/1999/xlink" x="0px" y="0px"
	 viewBox="0 0 512 512" style="enable-background:new 0 0 512 512;" xml:space="preserve">
<g>
	<path style="fill:#FFF4E5;" d="M61.817,332.413L0,324.918v-12.487l6.869-6.87v-55.574c0,0,18.107-22.48,40.588-26.226
		c22.478-3.747,92.415-9.991,92.415-9.991s42.462-45.584,66.816-51.826c24.352-6.245,185.456-12.491,228.541-0.628l-3.746,10.617
		c0,0,56.198,36.218,61.195,39.962c4.995,3.749,6.867,10.617,6.867,18.11c0,7.495,0,22.48,0,27.476s8.741,9.365,10.617,15.61
		c1.872,6.244,3.518,27.15-1.477,31.524c-4.998,4.372-42.858,10.938-42.858,10.938l-99.91,4.998l-200.442,2.493L61.817,332.413z"/>
	<path style="fill:#F1E8D8;" d="M61.817,332.413l103.659-9.368l200.442-2.493l99.91-4.998c0,0,37.86-6.566,42.858-10.938
		c4.995-4.374,3.349-25.28,1.477-31.524c-1.876-6.245-10.617-10.614-10.617-15.61c0-4.513,0-17.176,0-25.107
		c-68.882,8.173-344.087,42.703-344.087,42.703s-23.385-22.154-51.692-17.233C56.089,266.137,50.843,312,50.843,312L0,312.431
		v12.487L61.817,332.413z"/>
	<path style="fill:#D1D0BF;" d="M417.61,259.077c-54.156,3.693-55.385,49.23-55.385,49.23l-296.613,9.848
		c0,0-40.709,1.336-65.612,1.546v5.217l61.817,7.495l103.659-9.368l200.442-2.493l99.91-4.998c0,0,37.86-6.566,42.858-10.938
		c3.713-3.252,3.755-15.639,2.764-24.345l-40.918,7.112C470.531,287.383,456.993,256.616,417.61,259.077z"/>
	<path style="fill:#0A0A0A;" d="M107.714,267.471c-26.035,0-47.144,21.109-47.144,47.146c0,6.225,1.218,12.162,3.408,17.599
		l89.928-8.126c0.624-3.06,0.952-6.229,0.952-9.473C154.858,288.58,133.752,267.471,107.714,267.471z"/>
	<path style="fill:#0A0A0A;" d="M465.828,314.617c0-26.037-21.109-47.146-47.146-47.146c-26.036,0-47.146,21.109-47.146,47.146
		c0,1.908,0.129,3.783,0.35,5.633l93.915-4.696C465.811,315.241,465.828,314.933,465.828,314.617z"/>
	<g>
		<path style="fill:#595757;" d="M150.513,314.592c0,23.63-19.267,42.799-42.799,42.799c-23.633,0-42.748-19.169-42.748-42.799
			c0-23.581,19.115-42.749,42.748-42.749C131.245,271.843,150.513,291.01,150.513,314.592z"/>
		<path style="fill:#3E3A39;" d="M107.714,271.843c23.531,0,42.799,19.167,42.799,42.749c0,23.63-19.267,42.799-42.799,42.799
			V271.843z"/>
		<path style="fill:#FFF8DC;" d="M133.402,314.592c0,14.2-11.59,25.689-25.688,25.689c-14.151,0-25.689-11.489-25.689-25.689
			c0-14.152,11.539-25.591,25.689-25.591C121.812,289.001,133.402,300.439,133.402,314.592z"/>
		<path style="fill:#FFE1C6;" d="M107.714,289.001c14.098,0,25.688,11.439,25.688,25.591c0,14.2-11.59,25.689-25.688,25.689V289.001
			z"/>
	</g>
	<g>
		<path style="fill:#595757;" d="M461.481,314.592c0,23.63-19.269,42.799-42.799,42.799c-23.633,0-42.748-19.169-42.748-42.799
			c0-23.581,19.115-42.749,42.748-42.749C442.212,271.843,461.481,291.01,461.481,314.592z"/>
		<path style="fill:#3E3A39;" d="M418.682,271.843c23.53,0,42.799,19.167,42.799,42.749c0,23.63-19.269,42.799-42.799,42.799
			V271.843z"/>
		<path style="fill:#FFF8DC;" d="M444.371,314.592c0,14.2-11.593,25.689-25.689,25.689c-14.151,0-25.689-11.489-25.689-25.689
			c0-14.152,11.538-25.591,25.689-25.591C432.778,289.001,444.371,300.439,444.371,314.592z"/>
		<path style="fill:#FFE1C6;" d="M418.682,289.001c14.096,0,25.689,11.439,25.689,25.591c0,14.2-11.593,25.689-25.689,25.689
			V289.001z"/>
	</g>
	<path style="fill:#4C1C00;" d="M168.997,228.027c-2.1,0.049-4.023-1.164-4.887-3.075c-0.866-1.911-0.505-4.156,0.917-5.702
		c0,0,1.372-1.84,12.872-13.977c13.763-14.527,30.087-30.828,35.402-32.347c25.846-7.386,169.846-6.154,176-3.694
		c6.152,2.466,33.229,25.849,35.691,35.695c1.231,4.922,3.693,17.229-51.692,18.458c-23.807,0.529-131.99,2.994-185.895,4.224
		C168.821,228.03,168.997,228.027,168.997,228.027z"/>
	<path style="fill:#4C1C00;" d="M486.198,207.495c-14.991-9.942-49.792-32.386-54.235-35.252l-9.432,3.143l49.23,36.922
		L486.198,207.495z"/>
	<path style="fill:#FFFFFF;" d="M15.153,268.924c0,0,44.306-17.229,60.308-31.999c-20.85,0-45.652,6.054-49.272,10.286
		C21.306,252.923,15.153,259.199,15.153,268.924z"/>
	<polygon style="fill:#D1D0BF;" points="184.996,308.307 192.382,299.694 347.455,294.768 	"/>
	<polygon style="fill:#D1D0BF;" points="26.229,284.924 36.073,278.771 36.073,305.846 	"/>
	<path style="fill:#FF6664;" d="M495.145,223.383l-19.301,3.737c-2.317,0.448-4.048,2.395-4.224,4.745
		c-0.177,2.357,1.243,4.536,3.469,5.322l20.056,7.119V223.383z"/>
	<g>
		<path style="fill:#514F41;" d="M282.225,177.006c-33.304,0.759-57.676,2.442-66.068,4.704c-1.163,0.626-7.862,4.894-31.558,29.908
			c-2.731,2.882-4.873,5.168-6.552,6.97l9.15-0.209c22.467-0.512,59.532-1.358,95.027-2.164V177.006z"/>
		<path style="fill:#514F41;" d="M416.054,207.217c-0.393-1.242-3.625-6.549-13.749-16.094c-7.552-7.12-13.815-11.783-16.038-13.093
			c-5.097-0.648-28.172-1.47-62.002-1.47c-4.671,0-9.249,0.01-13.731,0.042v38.967c28.559-0.647,52.769-1.195,62.563-1.415
			c32.811-0.726,41.179-5.403,42.981-6.834C416.068,207.278,416.057,207.24,416.054,207.217z"/>
	</g>
</g>
</svg>
