<?xml version="1.0" encoding="iso-8859-1"?>
<!-- Generator: Adobe Illustrator 18.1.1, SVG Export Plug-In . SVG Version: 6.00 Build 0)  -->
<svg version="1.1" id="_x32_" xmlns="http://www.w3.org/2000/svg" xmlns:xlink="http://www.w3.org/1999/xlink" x="0px" y="0px"
	 viewBox="0 0 512 512" style="enable-background:new 0 0 512 512;" xml:space="preserve">
<g>
	<g>
		<path style="fill:#B78905;" d="M68.388,325.113h300.098l93.228-7.287c0,0,35.904-29.296,2.886-54.459
			c-33.017-25.156-127.351-22.009-139.928-22.009c-12.579,0-189.364,3.144-212.949,1.572c-23.584-1.572-72.326,50.314-72.326,50.314
			L68.388,325.113z"/>
		<g>
			<g>
				<circle style="fill:#7D4C30;" cx="117.341" cy="308.352" r="43.73"/>
				<circle style="fill:#FFEDD1;" cx="117.34" cy="308.352" r="28.423"/>
				<path style="fill:#FFD6BA;" d="M129.004,308.352c0,6.437-5.222,11.661-11.662,11.661c-6.443,0-11.661-5.224-11.661-11.661
					c0-6.439,5.219-11.658,11.661-11.658C123.782,296.694,129.004,301.913,129.004,308.352z"/>
			</g>
			<g>
				<circle style="fill:#7D4C30;" cx="413.61" cy="308.352" r="43.727"/>
				<path style="fill:#FFEDD1;" d="M442.035,308.352c0,15.699-12.73,28.424-28.423,28.424c-15.698,0-28.425-12.725-28.425-28.424
					c0-15.696,12.727-28.424,28.425-28.424C429.305,279.928,442.035,292.656,442.035,308.352z"/>
				<path style="fill:#FFD6BA;" d="M425.268,308.352c0,6.437-5.22,11.661-11.657,11.661c-6.44,0-11.661-5.224-11.661-11.661
					c0-6.439,5.221-11.658,11.661-11.658C420.049,296.694,425.268,301.913,425.268,308.352z"/>
			</g>
			<path style="fill:#FFF72A;" d="M503.987,259.522V237.66l-11.663-16.037v-18.222c-47.378-21.133-129.374-47.368-204.439-42.999
				c-75.069,4.374-137.019,53.203-137.019,53.203S38.63,240.573,23.324,248.587C8.02,256.607,0,277.013,0,282.119
				c0,5.098,4.372,32.795,4.372,32.795s40.814,10.199,53.206,10.199c1.084,0,4.85,0,10.81,0c-1.801-5.257-2.795-10.89-2.795-16.761
				c0-28.578,23.17-51.745,51.749-51.745c28.577,0,51.744,23.168,51.744,51.745c0,5.871-0.989,11.504-2.794,16.761
				c110.238,0,200.674,0,200.674,0l1.52-0.118c-2.388-5.681-3.705-11.919-3.705-18.468c0-26.362,21.372-47.735,47.736-47.735
				c26.366,0,47.738,21.372,47.738,47.735c0,3.977-0.494,7.83-1.405,11.518l2.865-0.22L512,296.694c0,0,0-16.769,0-21.138
				C512,271.183,503.987,259.522,503.987,259.522z"/>
			<path style="fill:#825135;" d="M168.358,229.64l286.792-29.155c0,0-52.843-39.353-135.198-35.71
				c-82.395,3.647-101.307,17.491-151.595,45.916C157.425,218.711,155.967,228.91,168.358,229.64z"/>
			<g>
				<path style="fill:#FFFFFF;" d="M289.196,174.577c-45.012,3.744-63.359,12.844-91.628,28.859
					c-8.17,6.043-17.913,18.223,15.935,14.588l79.491-9.216L289.196,174.577z"/>
				<path style="fill:#FFFFFF;" d="M390.956,200.204c0.337-4.958,0.69-10.122,1.028-14.921
					c-24.778-5.743-53.993-11.083-80.757-12.303l2.688,33.443L390.956,200.204z"/>
			</g>
			<path style="fill:#7D4C30;" d="M27.696,279.925l6.561,34.259c0,0-9.476-4.376-11.661-14.576
				C20.411,289.4,27.696,279.925,27.696,279.925z"/>
			<path style="fill:#FFFFFF;" d="M16.326,274.643l16.439-3.643l26.502-25.207c0,0-12.331-1.758-35.65,9.175L16.326,274.643z"/>
			<polygon style="fill:#FF5C00;" points="455.15,212.876 491.594,224.539 491.594,207.048 			"/>
			<path style="fill:#EED213;" d="M512,275.556c0-4.372-8.013-16.034-8.013-16.034V237.66l-6.197-8.518
				c-66.217,4.867-303.036,26.521-346.924,31.107c-20.409-17.488-59.034-16.034-80.169,8.746
				c-12.726,14.919-13.299,33.542-11.1,47.909c-14.192,0.22-36.273-0.328-52.31-4.912c-1.251-0.358-2.405-0.568-3.467-0.652
				c0.337,2.191,0.552,3.574,0.552,3.574s40.814,10.199,53.206,10.199c1.084,0,4.85,0,10.81,0
				c-1.801-5.257-2.795-10.89-2.795-16.761c0-28.578,23.17-51.745,51.749-51.745c28.577,0,51.744,23.168,51.744,51.745
				c0,5.871-0.989,11.504-2.794,16.761c110.238,0,200.674,0,200.674,0l1.52-0.118c-2.388-5.681-3.705-11.919-3.705-18.468
				c0-26.362,21.372-47.735,47.736-47.735c26.366,0,47.738,21.372,47.738,47.735c0,3.977-0.494,7.83-1.405,11.518l2.865-0.22
				L512,296.694C512,296.694,512,279.925,512,275.556z"/>
		</g>
	</g>
	<g>
		<g>
			<path style="fill:#E3BC0E;" d="M4.372,314.914c0,0,40.814,10.199,53.206,10.199c1.084,0,4.85,0,10.81,0
				c-0.966-2.819-1.69-5.748-2.163-8.762c-3.065,0.191-5.319,0.376-6.628,0.553c-14.917,2.01-40.308-2.959-55.938-6.598
				C4.085,313.093,4.372,314.914,4.372,314.914z"/>
			<path style="fill:#E3BC0E;" d="M368.486,324.995c-2.118-5.04-3.388-10.518-3.65-16.264c-38.549,0.732-124.747,2.42-195.958,4.217
				c-0.376,4.222-1.257,8.298-2.586,12.165c110.238,0,200.674,0,200.674,0L368.486,324.995z"/>
			<path style="fill:#E3BC0E;" d="M461.714,317.826L512,296.694c0,0,0-5.646,0-11.238l-43.404,14.471l-8.694,0.877
				c0.224,1.877,0.353,3.785,0.353,5.724c0,3.977-0.494,7.83-1.405,11.518L461.714,317.826z"/>
		</g>
	</g>
</g>
</svg>
