<?xml version="1.0" encoding="iso-8859-1"?>
<!-- Generator: Adobe Illustrator 18.1.1, SVG Export Plug-In . SVG Version: 6.00 Build 0)  -->
<svg version="1.1" id="_x33_" xmlns="http://www.w3.org/2000/svg" xmlns:xlink="http://www.w3.org/1999/xlink" x="0px" y="0px"
	 viewBox="0 0 512 512" style="enable-background:new 0 0 512 512;" xml:space="preserve">
<g>
	<path style="fill:#FF9950;" d="M511.547,331.418H0c0-6.435,0.853-13.987,2.206-21.699c1.658-9.415,1.911-61.577,7.969-67.636
		c11.313-11.313,81.129-25.879,103.747-31.536c56.548-59.372,92.255-66.678,120.53-66.678h200.752
		c28.276,0,62.203,5.656,70.686,39.581c4.482,17.945,5.807,58.289,6.062,92.329C512.174,306.106,511.547,331.418,511.547,331.418z"
		/>
	<path style="fill:#FF7C1F;" d="M511.547,331.418H0c0-6.435,0.853-13.987,2.206-21.699h55.005l103.231-28.283l230.508-11.311
		l60.807,5.654h60.195C512.174,306.106,511.547,331.418,511.547,331.418z"/>
	<path style="fill:#FF7C1F;" d="M186.795,318.727c0,4.262-0.381,8.513-1.139,12.691H45.819c-0.758-4.178-1.141-8.429-1.141-12.691
		c0-39.169,31.863-71.03,71.03-71.03C154.905,247.697,186.795,279.558,186.795,318.727z"/>
	<path style="fill:#874226;" d="M172.656,318.727c0,4.36-0.495,8.612-1.429,12.691H60.246c-0.932-4.079-1.428-8.331-1.428-12.691
		c0-31.371,25.524-56.89,56.89-56.89C147.109,261.836,172.656,287.355,172.656,318.727z"/>
	<path style="fill:#FF7C1F;" d="M478.026,318.727c0,4.262-0.383,8.513-1.141,12.691H337.05c-0.76-4.178-1.142-8.429-1.142-12.691
		c0-39.169,31.863-71.03,71.03-71.03C446.135,247.697,478.026,279.558,478.026,318.727z"/>
	<path style="fill:#874226;" d="M463.886,318.727c0,4.36-0.496,8.612-1.428,12.691H351.477c-0.934-4.079-1.429-8.331-1.429-12.691
		c0-31.371,25.519-56.89,56.89-56.89C438.339,261.836,463.886,287.355,463.886,318.727z"/>
	<g>
		<path style="fill:#A67357;" d="M165.115,318.727c0,27.278-22.243,49.405-49.407,49.405c-27.282,0-49.347-22.128-49.347-49.405
			c0-27.222,22.064-49.349,49.347-49.349C142.872,269.377,165.115,291.505,165.115,318.727z"/>
		<path style="fill:#8B5639;" d="M115.709,269.377c27.164,0,49.407,22.128,49.407,49.349c0,27.278-22.243,49.405-49.407,49.405
			V269.377z"/>
		<path style="fill:#FFF8DC;" d="M145.362,318.727c0,16.391-13.379,29.654-29.654,29.654c-16.335,0-29.654-13.263-29.654-29.654
			c0-16.337,13.318-29.542,29.654-29.542C131.983,289.185,145.362,302.39,145.362,318.727z"/>
		<path style="fill:#FFE1C6;" d="M115.709,289.185c16.275,0,29.654,13.205,29.654,29.542c0,16.391-13.379,29.654-29.654,29.654
			V289.185z"/>
	</g>
	<g>
		<path style="fill:#A67357;" d="M456.344,318.727c0,27.278-22.243,49.405-49.407,49.405c-27.281,0-49.346-22.128-49.346-49.405
			c0-27.222,22.065-49.349,49.346-49.349C434.1,269.377,456.344,291.505,456.344,318.727z"/>
		<path style="fill:#8B5639;" d="M406.936,269.377c27.164,0,49.407,22.128,49.407,49.349c0,27.278-22.243,49.405-49.407,49.405
			V269.377z"/>
		<path style="fill:#FFF8DC;" d="M436.59,318.727c0,16.391-13.379,29.654-29.654,29.654c-16.335,0-29.654-13.263-29.654-29.654
			c0-16.337,13.319-29.542,29.654-29.542C423.211,289.185,436.59,302.39,436.59,318.727z"/>
		<path style="fill:#FFE1C6;" d="M406.936,289.185c16.275,0,29.654,13.205,29.654,29.542c0,16.391-13.379,29.654-29.654,29.654
			V289.185z"/>
	</g>
	<g>
		<path style="fill:#7A746D;" d="M304.687,163.429c-29.682,0.425-56.601,1.176-69.608,2.477
			c-20.457,2.045-42.024,18.77-57.476,33.643c-13.028,12.542-9.448,10.344-9.448,10.344c-2.141,2.345-2.696,5.733-1.417,8.64
			c1.282,2.907,4.16,4.781,7.335,4.781h13.239h117.374V163.429z"/>
		<path style="fill:#7A746D;" d="M324.485,163.19v60.124h94.883c4.429,0,8.017-3.588,8.017-8.015v-44.284
			c0-2.129-0.846-4.171-2.353-5.673c-1.507-1.504-3.55-2.347-5.68-2.343C419.352,162.999,375.479,162.699,324.485,163.19z"/>
	</g>
	<rect x="489.94" y="237.595" style="fill:#FF3B1F;" width="16.97" height="22.624"/>
	<rect x="489.94" y="260.22" style="fill:#FFFFFF;" width="16.97" height="14.143"/>
	<path style="fill:#FFFFFF;" d="M15.832,266.121c0,0-1.415-18.383,5.657-21.211c7.07-2.828,24.041-8.484,22.626-2.828
		C42.7,247.738,37.044,264.708,15.832,266.121z"/>
</g>
</svg>
