<?xml version="1.0" encoding="iso-8859-1"?>
<!-- Generator: Adobe Illustrator 18.1.1, SVG Export Plug-In . SVG Version: 6.00 Build 0)  -->
<svg version="1.1" id="_x34_" xmlns="http://www.w3.org/2000/svg" xmlns:xlink="http://www.w3.org/1999/xlink" x="0px" y="0px"
	 viewBox="0 0 512 512" style="enable-background:new 0 0 512 512;" xml:space="preserve">
<g>
	<g>
		<g>
			<path style="fill:#87E5A5;" d="M512,299.703c0,12.008-9.714,21.724-21.721,21.724H18.078l-12.194-36.7l-5.258-15.846
				c-3.839-9.343,10.768-19.429,22.4-24.13c7.49-3.037,16.461-6.07,25.623-8.789c24.072-7.305,49.198-12.997,49.198-12.997
				c2.537-0.438,7.983-2.601,10.273-3.842c0,0,67.707-49.878,104.094-59.411c36.394-9.533,145.748-11.507,273.668,49.819
				C489.659,208.298,512,299.703,512,299.703z"/>
			<path style="fill:#87D6A9;" d="M504.823,207.306l-18.94,2.226c-68.016-32.612-130.764-47.341-180.093-52.542l-49.075,164.437
				h233.564c12.007,0,21.721-9.716,21.721-21.724v-79.585C512,208.298,510.639,207.306,504.823,207.306z"/>
			<rect x="152.112" y="307.89" style="fill:#5DA87B;" width="265.755" height="13.979"/>
			<path style="fill:#5DA87B;" d="M512,294.502v5.202c0,12.008-9.714,21.724-21.721,21.724h-72.411
				C450.979,312.08,488.546,301.191,512,294.502z"/>
			<path style="fill:#595757;" d="M158.5,304.532c0,29.146-23.766,52.789-52.792,52.789c-29.15,0-52.727-23.643-52.727-52.789
				c0-29.086,23.577-52.729,52.727-52.729C134.734,251.803,158.5,275.446,158.5,304.532z"/>
			<path style="fill:#3E3A39;" d="M105.708,251.803c29.026,0,52.792,23.643,52.792,52.729c0,29.146-23.766,52.789-52.792,52.789
				V251.803z"/>
			<path style="fill:#FFF8DC;" d="M137.394,304.532c0,17.515-14.295,31.685-31.686,31.685c-17.453,0-31.685-14.17-31.685-31.685
				c0-17.454,14.232-31.564,31.685-31.564C123.099,272.968,137.394,287.077,137.394,304.532z"/>
			<path style="fill:#595757;" d="M486.442,304.532c0,29.146-23.58,52.789-52.667,52.789c-29.211,0-52.789-23.643-52.789-52.789
				c0-29.086,23.578-52.729,52.789-52.729C462.862,251.803,486.442,275.446,486.442,304.532z"/>
			<path style="fill:#3E3A39;" d="M433.776,251.803c29.087,0,52.667,23.643,52.667,52.729c0,29.146-23.58,52.789-52.667,52.789
				V251.803z"/>
			<path style="fill:#FFF8DC;" d="M465.337,304.532c0,17.515-14.111,31.685-31.562,31.685c-17.515,0-31.751-14.17-31.751-31.685
				c0-17.454,14.236-31.564,31.751-31.564C451.227,272.968,465.337,287.081,465.337,304.532z"/>
			<path style="fill:#FFE1C6;" d="M105.708,272.968c17.391,0,31.686,14.11,31.686,31.564c0,17.515-14.295,31.685-31.686,31.685
				V272.968z"/>
			<path style="fill:#FFE1C6;" d="M433.776,272.968c17.451,0,31.562,14.113,31.562,31.564c0,17.515-14.111,31.685-31.562,31.685
				V272.968z"/>
			<path style="fill:#7A746D;" d="M286.851,171.472c-10.953-0.932-20.361-1.239-28.033-1.239c-17.203,0-32.86,1.488-42.887,4.149
				c-21.787,5.693-84.107,45.857-54.71,45.857l113.008-5.195L286.851,171.472z"/>
			<path style="fill:#736B60;" d="M317.984,173.08l-11.451,41.964l146.8-4.149l0,0C400.046,187.561,353.136,177.291,317.984,173.08z
				"/>
		</g>
		<path style="fill:#5DA87B;" d="M47.719,320.992c0,1.548-1.175,2.727-2.721,2.727H19.622c-1.174,0-2.165-0.621-2.597-1.736
			l-4.458-12.13c-0.188-0.373-0.059-0.619,0.061-0.928c0.19-0.183,0.495-0.371,0.749-0.371h31.622c1.545,0,2.721,1.239,2.721,2.787
			V320.992z"/>
		<path style="fill:#FFFFFF;" d="M10.341,265.416L10.341,265.416c-0.497-1.115-0.497-2.228,0.059-3.524
			c1.733-4.024,8.049-8.104,13.432-10.337c3.899-1.546,8.665-3.217,14.358-4.95l-3.776,19.367l-21.166,8.36L10.341,265.416z"/>
	</g>
	<path style="fill:#87D6A9;" d="M247.122,247.095c0,3.717-3.032,6.693-6.808,6.693h-36.388c-3.717,0-6.686-2.975-6.686-6.693l0,0
		c0-3.712,2.969-6.678,6.686-6.678h36.388C244.09,240.416,247.122,243.383,247.122,247.095L247.122,247.095z"/>
	<path style="fill:#87E5A5;" d="M364.029,247.095c0,3.717-2.968,6.693-6.623,6.693h-36.511c-3.715,0-6.686-2.975-6.686-6.693l0,0
		c0-3.712,2.971-6.678,6.686-6.678h36.511C361.061,240.416,364.029,243.383,364.029,247.095L364.029,247.095z"/>
</g>
</svg>
