<?xml version="1.0" encoding="iso-8859-1"?>
<!-- Generator: Adobe Illustrator 18.1.1, SVG Export Plug-In . SVG Version: 6.00 Build 0)  -->
<svg version="1.1" id="_x35_" xmlns="http://www.w3.org/2000/svg" xmlns:xlink="http://www.w3.org/1999/xlink" x="0px" y="0px"
	 viewBox="0 0 512 512" style="enable-background:new 0 0 512 512;" xml:space="preserve">
<g>
	<g>
		<path style="fill:#6A6D05;" d="M68.388,325.113h300.097l93.228-7.287c0,0,35.904-29.298,2.887-54.461
			c-33.018-25.154-127.351-22.007-139.928-22.007c-12.579,0-189.364,3.142-212.949,1.572c-23.584-1.572-72.326,50.312-72.326,50.312
			L68.388,325.113z"/>
		<g>
			<g>
				<circle style="fill:#303030;" cx="117.341" cy="308.35" r="43.73"/>
				<path style="fill:#D1D1D1;" d="M145.762,308.35c0,15.699-12.721,28.426-28.421,28.426c-15.698,0-28.424-12.727-28.424-28.426
					c0-15.694,12.726-28.422,28.424-28.422C133.04,279.928,145.762,292.656,145.762,308.35z"/>
				<path style="fill:#BABABA;" d="M129.003,308.35c0,6.439-5.221,11.663-11.662,11.663c-6.442,0-11.661-5.224-11.661-11.663
					c0-6.437,5.22-11.658,11.661-11.658C123.782,296.693,129.003,301.913,129.003,308.35z"/>
			</g>
			<g>
				<circle style="fill:#303030;" cx="413.609" cy="308.35" r="43.726"/>
				<path style="fill:#D1D1D1;" d="M442.034,308.35c0,15.699-12.729,28.426-28.423,28.426c-15.698,0-28.424-12.727-28.424-28.426
					c0-15.694,12.726-28.422,28.424-28.422C429.305,279.928,442.034,292.656,442.034,308.35z"/>
				<path style="fill:#BABABA;" d="M425.268,308.35c0,6.439-5.22,11.663-11.658,11.663c-6.439,0-11.661-5.224-11.661-11.663
					c0-6.437,5.222-11.658,11.661-11.658C420.049,296.693,425.268,301.913,425.268,308.35z"/>
			</g>
			<path style="fill:#FF371F;" d="M503.986,259.522v-21.864l-11.663-16.036v-18.222c-47.377-21.133-129.374-47.368-204.438-42.999
				c-75.07,4.373-137.02,53.203-137.02,53.203S38.629,240.573,23.324,248.587C8.019,256.605,0,277.013,0,282.118
				c0,5.098,4.371,32.797,4.371,32.797s40.814,10.199,53.206,10.199c1.084,0,4.85,0,10.811,0c-1.801-5.257-2.795-10.89-2.795-16.763
				c0-28.576,23.17-51.745,51.749-51.745c28.577,0,51.745,23.169,51.745,51.745c0,5.873-0.99,11.506-2.794,16.763
				c110.237,0,200.674,0,200.674,0l1.519-0.118c-2.388-5.682-3.704-11.919-3.704-18.468c0-26.364,21.371-47.737,47.735-47.737
				c26.367,0,47.739,21.372,47.739,47.737c0,3.975-0.495,7.83-1.406,11.518l2.865-0.22L512,296.693c0,0,0-16.768,0-21.137
				C512,271.182,503.986,259.522,503.986,259.522z"/>
			<path style="fill:#353535;" d="M168.357,229.64l286.793-29.155c0,0-52.843-39.354-135.198-35.711
				c-82.395,3.649-101.307,17.493-151.595,45.917C157.424,218.709,155.967,228.91,168.357,229.64z"/>
			<g>
				<path style="fill:#DFF9FF;" d="M289.196,174.577c-45.013,3.744-63.359,12.844-91.628,28.859
					c-8.171,6.042-17.913,18.222,15.934,14.588l79.491-9.216L289.196,174.577z"/>
				<path style="fill:#DFF9FF;" d="M390.955,200.204c0.337-4.958,0.691-10.122,1.028-14.921
					c-24.778-5.743-53.992-11.083-80.757-12.305l2.688,33.445L390.955,200.204z"/>
			</g>
			<path style="fill:#303030;" d="M27.696,279.925l6.561,34.259c0,0-9.477-4.376-11.661-14.576
				C20.41,289.4,27.696,279.925,27.696,279.925z"/>
			<path style="fill:#FFFFFF;" d="M16.325,274.643l16.44-3.644l26.501-25.207c0,0-12.331-1.758-35.65,9.173L16.325,274.643z"/>
			<polygon style="fill:#FF4000;" points="455.15,212.876 491.593,224.539 491.593,207.046 			"/>
			<path style="fill:#F72C1C;" d="M512,275.556c0-4.374-8.014-16.034-8.014-16.034v-21.864l-6.196-8.516
				c-66.218,4.867-303.037,26.521-346.925,31.107c-20.409-17.49-59.034-16.034-80.168,8.746
				c-12.727,14.919-13.299,33.542-11.101,47.909c-14.192,0.22-36.272-0.328-52.309-4.912c-1.252-0.358-2.405-0.568-3.468-0.654
				c0.338,2.193,0.553,3.575,0.553,3.575s40.814,10.199,53.206,10.199c1.084,0,4.85,0,10.811,0
				c-1.801-5.257-2.795-10.89-2.795-16.763c0-28.576,23.17-51.745,51.749-51.745c28.577,0,51.745,23.169,51.745,51.745
				c0,5.873-0.99,11.506-2.794,16.763c110.237,0,200.674,0,200.674,0l1.519-0.118c-2.388-5.682-3.704-11.919-3.704-18.468
				c0-26.364,21.371-47.737,47.735-47.737c26.367,0,47.739,21.372,47.739,47.737c0,3.975-0.495,7.83-1.406,11.518l2.865-0.22
				L512,296.693C512,296.693,512,279.925,512,275.556z"/>
		</g>
	</g>
	<g>
		<g>
			<g>
				<path style="fill:#DD1D14;" d="M4.371,314.914c0,0,40.814,10.199,53.206,10.199c1.084,0,4.85,0,10.811,0
					c-0.966-2.819-1.69-5.748-2.163-8.762c-3.066,0.191-5.319,0.375-6.629,0.553c-14.916,2.01-40.308-2.959-55.938-6.598
					C4.084,313.093,4.371,314.914,4.371,314.914z"/>
			</g>
			<g>
				<path style="fill:#DD1D14;" d="M368.485,324.996c-2.118-5.04-3.388-10.518-3.649-16.264c-38.55,0.73-124.747,2.42-195.958,4.215
					c-0.375,4.224-1.258,8.299-2.585,12.167c110.237,0,200.674,0,200.674,0L368.485,324.996z"/>
			</g>
			<g>
				<path style="fill:#DD1D14;" d="M461.713,317.826L512,296.693c0,0,0-5.644,0-11.236l-43.405,14.469l-8.695,0.879
					c0.224,1.877,0.354,3.785,0.354,5.724c0,3.975-0.495,7.83-1.406,11.518L461.713,317.826z"/>
			</g>
		</g>
	</g>
</g>
</svg>
