<?xml version="1.0" encoding="iso-8859-1"?>
<!-- Generator: Adobe Illustrator 18.1.1, SVG Export Plug-In . SVG Version: 6.00 Build 0)  -->
<svg version="1.1" id="_x36_" xmlns="http://www.w3.org/2000/svg" xmlns:xlink="http://www.w3.org/1999/xlink" x="0px" y="0px"
	 viewBox="0 0 512 512" style="enable-background:new 0 0 512 512;" xml:space="preserve">
<g>
	<path style="fill:#6CA8FF;" d="M511.547,331.42H0c0-6.437,0.853-13.988,2.205-21.699c1.658-9.418,1.911-61.579,7.97-67.638
		c11.313-11.313,81.128-25.877,103.747-31.535c56.547-59.372,92.254-66.68,120.53-66.68h200.752
		c28.275,0,62.202,5.656,70.685,39.581c4.482,17.945,5.808,58.291,6.062,92.33C512.174,306.106,511.547,331.42,511.547,331.42z"/>
	<path style="fill:#5193F4;" d="M511.547,331.42H0c0-6.437,0.853-13.988,2.205-21.699h55.006l103.231-28.286l230.509-11.311
		l60.807,5.656h60.195C512.174,306.106,511.547,331.42,511.547,331.42z"/>
	<path style="fill:#5193F4;" d="M186.796,318.727c0,4.264-0.381,8.515-1.14,12.693H45.819c-0.759-4.178-1.141-8.429-1.141-12.693
		c0-39.167,31.862-71.03,71.03-71.03C154.905,247.697,186.796,279.56,186.796,318.727z"/>
	<path style="fill:#3A2626;" d="M172.656,318.727c0,4.362-0.495,8.613-1.43,12.693H60.247c-0.933-4.079-1.429-8.331-1.429-12.693
		c0-31.37,25.523-56.889,56.89-56.889C147.109,261.838,172.656,287.357,172.656,318.727z"/>
	<path style="fill:#5193F4;" d="M478.026,318.727c0,4.264-0.383,8.515-1.141,12.693H337.049c-0.76-4.178-1.142-8.429-1.142-12.693
		c0-39.167,31.863-71.03,71.031-71.03C446.136,247.697,478.026,279.56,478.026,318.727z"/>
	<path style="fill:#3A2626;" d="M463.885,318.727c0,4.362-0.495,8.613-1.428,12.693H351.477c-0.933-4.079-1.428-8.331-1.428-12.693
		c0-31.37,25.518-56.889,56.89-56.889C438.338,261.838,463.885,287.357,463.885,318.727z"/>
	<g>
		<path style="fill:#595757;" d="M165.115,318.727c0,27.278-22.244,49.406-49.407,49.406c-27.281,0-49.347-22.128-49.347-49.406
			c0-27.222,22.065-49.349,49.347-49.349C142.872,269.377,165.115,291.505,165.115,318.727z"/>
		<path style="fill:#3E3A39;" d="M115.708,269.377c27.164,0,49.407,22.128,49.407,49.349c0,27.278-22.244,49.406-49.407,49.406
			V269.377z"/>
		<path style="fill:#DBDCDC;" d="M145.362,318.727c0,16.391-13.378,29.656-29.654,29.656c-16.335,0-29.654-13.265-29.654-29.656
			c0-16.337,13.319-29.54,29.654-29.54C131.983,289.186,145.362,302.39,145.362,318.727z"/>
		<path style="fill:#C5C5C6;" d="M115.708,289.186c16.275,0,29.654,13.204,29.654,29.54c0,16.391-13.378,29.656-29.654,29.656
			V289.186z"/>
	</g>
	<g>
		<path style="fill:#595757;" d="M456.344,318.727c0,27.278-22.243,49.406-49.407,49.406c-27.28,0-49.346-22.128-49.346-49.406
			c0-27.222,22.065-49.349,49.346-49.349C434.101,269.377,456.344,291.505,456.344,318.727z"/>
		<path style="fill:#3E3A39;" d="M406.936,269.377c27.165,0,49.407,22.128,49.407,49.349c0,27.278-22.243,49.406-49.407,49.406
			V269.377z"/>
		<path style="fill:#DBDCDC;" d="M436.59,318.727c0,16.391-13.379,29.656-29.654,29.656c-16.334,0-29.654-13.265-29.654-29.656
			c0-16.337,13.32-29.54,29.654-29.54C423.211,289.186,436.59,302.39,436.59,318.727z"/>
		<path style="fill:#C5C5C6;" d="M406.936,289.186c16.275,0,29.654,13.204,29.654,29.54c0,16.391-13.379,29.656-29.654,29.656
			V289.186z"/>
	</g>
	<g>
		<path style="fill:#2D586D;" d="M304.687,163.429c-29.683,0.425-56.601,1.176-69.608,2.477
			c-20.457,2.045-42.024,18.77-57.477,33.643c-13.028,12.542-9.448,10.344-9.448,10.344c-2.142,2.345-2.696,5.733-1.416,8.641
			c1.281,2.905,4.159,4.782,7.335,4.782h13.239h117.374V163.429z"/>
		<path style="fill:#2D586D;" d="M324.485,163.192v60.124h94.884c4.428,0,8.017-3.59,8.017-8.015v-44.284
			c0-2.131-0.846-4.171-2.354-5.675c-1.506-1.503-3.549-2.345-5.678-2.342C419.353,163.001,375.48,162.699,324.485,163.192z"/>
	</g>
	<rect x="489.94" y="237.595" style="fill:#FF1F1F;" width="16.97" height="22.625"/>
	<rect x="489.94" y="260.22" style="fill:#FFFFFF;" width="16.97" height="14.144"/>
	<path style="fill:#FFFFFF;" d="M15.831,266.121c0,0-1.415-18.382,5.658-21.212c7.07-2.828,24.04-8.483,22.625-2.828
		C42.7,247.739,37.045,264.708,15.831,266.121z"/>
</g>
</svg>
