<?xml version="1.0" encoding="iso-8859-1"?>
<!-- Generator: Adobe Illustrator 18.1.1, SVG Export Plug-In . SVG Version: 6.00 Build 0)  -->
<svg version="1.1" id="_x37_" xmlns="http://www.w3.org/2000/svg" xmlns:xlink="http://www.w3.org/1999/xlink" x="0px" y="0px"
	 viewBox="0 0 512 512" style="enable-background:new 0 0 512 512;" xml:space="preserve">
<g>
	<path style="fill:#B5D8E5;" d="M61.817,332.413L0,324.918v-12.487l6.869-6.87v-55.574c0,0,18.108-22.48,40.588-26.225
		c22.478-3.747,92.416-9.989,92.416-9.989s42.461-45.586,66.815-51.828c24.353-6.247,185.455-12.489,228.541-0.628l-3.746,10.616
		c0,0,56.199,36.22,61.196,39.964c4.996,3.749,6.867,10.617,6.867,18.11c0,7.495,0,22.478,0,27.476c0,4.996,8.74,9.366,10.616,15.61
		c1.873,6.244,3.519,27.15-1.477,31.524c-4.998,4.372-42.858,10.938-42.858,10.938l-99.91,4.998l-200.441,2.495L61.817,332.413z"/>
	<path style="fill:#A4CCD8;" d="M61.817,332.413l103.66-9.366l200.441-2.495l99.91-4.998c0,0,37.86-6.566,42.858-10.938
		c4.996-4.373,3.35-25.28,1.477-31.524c-1.876-6.244-10.616-10.614-10.616-15.61c0-4.513,0-17.176,0-25.105
		c-68.882,8.172-344.087,42.7-344.087,42.7s-23.385-22.153-51.692-17.231C56.089,266.137,50.843,312,50.843,312L0,312.431v12.487
		L61.817,332.413z"/>
	<path style="fill:#84B4BF;" d="M417.61,259.079c-54.156,3.693-55.385,49.23-55.385,49.23l-296.612,9.847
		c0,0-40.709,1.334-65.613,1.546v5.217l61.817,7.494l103.66-9.366l200.441-2.495l99.91-4.998c0,0,37.86-6.566,42.858-10.938
		c3.713-3.252,3.755-15.639,2.764-24.345l-40.918,7.113C470.53,287.383,456.994,256.616,417.61,259.079z"/>
	<path style="fill:#7C732F;" d="M107.714,267.469c-26.035,0-47.143,21.111-47.143,47.146c0,6.227,1.218,12.162,3.408,17.603
		l89.928-8.126c0.624-3.062,0.952-6.23,0.952-9.477C154.859,288.58,133.752,267.469,107.714,267.469z"/>
	<path style="fill:#7C732F;" d="M465.827,314.615c0-26.035-21.108-47.146-47.145-47.146c-26.036,0-47.146,21.111-47.146,47.146
		c0,1.909,0.128,3.785,0.35,5.635l93.915-4.696C465.81,315.24,465.827,314.931,465.827,314.615z"/>
	<g>
		<path style="fill:#595757;" d="M150.514,314.591c0,23.631-19.267,42.8-42.799,42.8c-23.633,0-42.748-19.169-42.748-42.8
			c0-23.581,19.115-42.748,42.748-42.748C131.246,271.843,150.514,291.01,150.514,314.591z"/>
		<path style="fill:#3E3A39;" d="M107.714,271.843c23.532,0,42.799,19.167,42.799,42.748c0,23.631-19.267,42.8-42.799,42.8V271.843z
			"/>
		<path style="fill:#DBDCDC;" d="M133.402,314.591c0,14.202-11.589,25.688-25.688,25.688c-14.15,0-25.689-11.486-25.689-25.688
			c0-14.15,11.539-25.591,25.689-25.591C121.813,289,133.402,300.441,133.402,314.591z"/>
		<path style="fill:#C5C5C6;" d="M107.714,289c14.099,0,25.688,11.44,25.688,25.591c0,14.202-11.589,25.688-25.688,25.688V289z"/>
	</g>
	<g>
		<path style="fill:#595757;" d="M461.482,314.591c0,23.631-19.269,42.8-42.799,42.8c-23.633,0-42.748-19.169-42.748-42.8
			c0-23.581,19.115-42.748,42.748-42.748C442.213,271.843,461.482,291.01,461.482,314.591z"/>
		<path style="fill:#3E3A39;" d="M418.682,271.843c23.53,0,42.799,19.167,42.799,42.748c0,23.631-19.269,42.8-42.799,42.8V271.843z"
			/>
		<path style="fill:#DBDCDC;" d="M444.37,314.591c0,14.202-11.592,25.688-25.688,25.688c-14.151,0-25.689-11.486-25.689-25.688
			c0-14.15,11.538-25.591,25.689-25.591C432.778,289,444.37,300.441,444.37,314.591z"/>
		<path style="fill:#C5C5C6;" d="M418.682,289c14.096,0,25.688,11.44,25.688,25.591c0,14.202-11.592,25.688-25.688,25.688V289z"/>
	</g>
	<path d="M168.997,228.027c-2.1,0.049-4.023-1.162-4.887-3.075c-0.866-1.913-0.505-4.156,0.918-5.702c0,0,1.371-1.841,12.872-13.979
		c13.763-14.526,30.087-30.826,35.403-32.345c25.846-7.386,169.845-6.154,175.999-3.695c6.152,2.464,33.23,25.849,35.691,35.695
		c1.231,4.92,3.694,17.229-51.691,18.459c-23.807,0.53-131.99,2.994-185.894,4.223C168.822,228.03,168.997,228.027,168.997,228.027z
		"/>
	<path d="M486.197,207.497c-14.991-9.945-49.791-32.388-54.234-35.256l-9.432,3.143l49.229,36.922L486.197,207.497z"/>
	<path style="fill:#FFFFFF;" d="M15.153,268.925c0,0,44.307-17.231,60.308-32.001c-20.85,0-45.652,6.052-49.272,10.288
		C21.306,252.923,15.153,259.199,15.153,268.925z"/>
	<polygon style="fill:#84B4BF;" points="184.996,308.309 192.382,299.694 347.455,294.769 	"/>
	<polygon style="fill:#84B4BF;" points="26.23,284.924 36.074,278.77 36.074,305.848 	"/>
	<path style="fill:#E54A64;" d="M495.145,223.385l-19.3,3.735c-2.317,0.45-4.048,2.395-4.225,4.747
		c-0.177,2.355,1.244,4.535,3.469,5.322l20.056,7.118V223.385z"/>
	<g>
		<path style="fill:#514F41;" d="M282.226,177.006c-33.305,0.759-57.677,2.44-66.068,4.704c-1.163,0.626-7.861,4.894-31.557,29.908
			c-2.732,2.88-4.873,5.168-6.552,6.97l9.149-0.209c22.467-0.511,59.533-1.356,95.028-2.164V177.006z"/>
		<path style="fill:#514F41;" d="M416.053,207.215c-0.392-1.239-3.624-6.548-13.748-16.092
			c-7.552-7.121-13.815-11.781-16.039-13.093c-5.097-0.647-28.172-1.471-62.001-1.471c-4.672,0-9.25,0.014-13.732,0.044v38.969
			c28.559-0.648,52.77-1.197,62.564-1.417c32.81-0.725,41.178-5.404,42.981-6.834C416.068,207.278,416.057,207.242,416.053,207.215z
			"/>
	</g>
</g>
</svg>
