<?xml version="1.0" encoding="iso-8859-1"?>
<!-- Generator: Adobe Illustrator 18.1.1, SVG Export Plug-In . SVG Version: 6.00 Build 0)  -->
<svg version="1.1" id="_x38_" xmlns="http://www.w3.org/2000/svg" xmlns:xlink="http://www.w3.org/1999/xlink" x="0px" y="0px"
	 viewBox="0 0 512 512" style="enable-background:new 0 0 512 512;" xml:space="preserve">
<g>
	<g>
		<g>
			<path style="fill:#FFF3F4;" d="M512,299.704c0,12.008-9.714,21.722-21.721,21.722H18.078l-12.194-36.7l-5.258-15.846
				c-3.839-9.343,10.769-19.429,22.401-24.13c7.489-3.038,16.46-6.07,25.622-8.789c24.073-7.305,49.199-12.997,49.199-12.997
				c2.537-0.438,7.982-2.601,10.273-3.84c0,0,67.708-49.88,104.095-59.413c36.393-9.531,145.748-11.507,273.667,49.819
				C489.659,208.298,512,299.704,512,299.704z"/>
			<path style="fill:#EFEFEF;" d="M504.823,207.305l-18.939,2.226c-68.016-32.612-130.765-47.339-180.093-52.542l-49.075,164.437
				h233.564c12.007,0,21.721-9.714,21.721-21.722v-79.587C512,208.298,510.639,207.305,504.823,207.305z"/>
			<rect x="152.112" y="307.891" style="fill:#636362;" width="265.756" height="13.977"/>
			<path style="fill:#636362;" d="M512,294.503v5.202c0,12.008-9.714,21.722-21.721,21.722h-72.411
				C450.978,312.08,488.546,301.19,512,294.503z"/>
			<path style="fill:#595757;" d="M158.5,304.531c0,29.148-23.765,52.789-52.791,52.789c-29.15,0-52.727-23.641-52.727-52.789
				c0-29.086,23.577-52.729,52.727-52.729C134.735,251.802,158.5,275.445,158.5,304.531z"/>
			<path style="fill:#3E3A39;" d="M105.709,251.802c29.026,0,52.791,23.643,52.791,52.729c0,29.148-23.765,52.789-52.791,52.789
				V251.802z"/>
			<path style="fill:#DBDCDC;" d="M137.394,304.531c0,17.515-14.295,31.685-31.685,31.685c-17.453,0-31.685-14.17-31.685-31.685
				c0-17.454,14.231-31.564,31.685-31.564C123.099,272.967,137.394,287.077,137.394,304.531z"/>
			<path style="fill:#595757;" d="M486.441,304.531c0,29.148-23.579,52.789-52.667,52.789c-29.211,0-52.789-23.641-52.789-52.789
				c0-29.086,23.578-52.729,52.789-52.729C462.863,251.802,486.441,275.445,486.441,304.531z"/>
			<path style="fill:#3E3A39;" d="M433.775,251.802c29.088,0,52.667,23.643,52.667,52.729c0,29.148-23.579,52.789-52.667,52.789
				V251.802z"/>
			<path style="fill:#DBDCDC;" d="M465.336,304.531c0,17.515-14.111,31.685-31.562,31.685c-17.515,0-31.751-14.17-31.751-31.685
				c0-17.454,14.236-31.564,31.751-31.564C451.226,272.967,465.336,287.08,465.336,304.531z"/>
			<path style="fill:#C5C5C6;" d="M105.709,272.967c17.39,0,31.685,14.11,31.685,31.564c0,17.515-14.295,31.685-31.685,31.685
				V272.967z"/>
			<path style="fill:#C5C5C6;" d="M433.775,272.967c17.451,0,31.562,14.113,31.562,31.564c0,17.515-14.111,31.685-31.562,31.685
				V272.967z"/>
			<path style="fill:#2D586D;" d="M286.852,171.472c-10.953-0.932-20.361-1.239-28.033-1.239c-17.204,0-32.86,1.488-42.887,4.149
				c-21.788,5.693-84.108,45.857-54.711,45.857l113.008-5.195L286.852,171.472z"/>
			<path style="fill:#264F60;" d="M317.984,173.08l-11.45,41.964l146.8-4.147l0,0C400.046,187.561,353.135,177.291,317.984,173.08z"
				/>
		</g>
		<path style="fill:#636362;" d="M47.719,320.992c0,1.548-1.175,2.727-2.721,2.727H19.623c-1.174,0-2.166-0.621-2.597-1.736
			l-4.458-12.129c-0.188-0.374-0.061-0.621,0.06-0.93c0.189-0.181,0.495-0.371,0.748-0.371h31.622c1.545,0,2.721,1.241,2.721,2.787
			V320.992z"/>
		<path style="fill:#FF5F6B;" d="M10.342,265.415L10.342,265.415c-0.497-1.113-0.497-2.228,0.059-3.524
			c1.733-4.024,8.049-8.104,13.432-10.335c3.899-1.548,8.664-3.219,14.358-4.95l-3.777,19.366l-21.166,8.358L10.342,265.415z"/>
	</g>
	<path style="fill:#DBDCDC;" d="M247.122,247.096c0,3.716-3.031,6.691-6.807,6.691h-36.388c-3.716,0-6.686-2.975-6.686-6.691l0,0
		c0-3.714,2.969-6.68,6.686-6.68h36.388C244.091,240.416,247.122,243.383,247.122,247.096L247.122,247.096z"/>
	<path style="fill:#C5C5C6;" d="M364.029,247.096c0,3.716-2.969,6.691-6.623,6.691h-36.512c-3.716,0-6.686-2.975-6.686-6.691l0,0
		c0-3.714,2.97-6.68,6.686-6.68h36.512C361.06,240.416,364.029,243.383,364.029,247.096L364.029,247.096z"/>
</g>
</svg>
