<?xml version="1.0" encoding="iso-8859-1"?>
<!-- Generator: Adobe Illustrator 18.1.1, SVG Export Plug-In . SVG Version: 6.00 Build 0)  -->
<svg version="1.1" id="_x31_0" xmlns="http://www.w3.org/2000/svg" xmlns:xlink="http://www.w3.org/1999/xlink" x="0px" y="0px"
	 viewBox="0 0 512 512" style="enable-background:new 0 0 512 512;" xml:space="preserve">
<g>
	<path style="fill:#FF7D50;" d="M511.546,331.42H0c0-6.437,0.852-13.988,2.205-21.699c1.659-9.416,1.912-61.579,7.97-67.636
		c11.313-11.315,81.128-25.879,103.747-31.536c56.547-59.372,92.255-66.68,120.529-66.68h200.752
		c28.275,0,62.203,5.656,70.686,39.581c4.482,17.945,5.807,58.291,6.062,92.331C512.174,306.106,511.546,331.42,511.546,331.42z"/>
	<path style="fill:#FF601F;" d="M511.546,331.42H0c0-6.437,0.852-13.988,2.205-21.699h55.006l103.231-28.285l230.508-11.311
		l60.806,5.656h60.196C512.174,306.106,511.546,331.42,511.546,331.42z"/>
	<path style="fill:#FF601F;" d="M186.795,318.727c0,4.264-0.381,8.515-1.14,12.693H45.819c-0.759-4.178-1.141-8.429-1.141-12.693
		c0-39.167,31.863-71.029,71.03-71.029C154.905,247.697,186.795,279.56,186.795,318.727z"/>
	<path style="fill:#3A2626;" d="M172.656,318.727c0,4.362-0.495,8.613-1.429,12.693H60.246c-0.933-4.079-1.428-8.331-1.428-12.693
		c0-31.369,25.523-56.888,56.89-56.888C147.109,261.838,172.656,287.357,172.656,318.727z"/>
	<path style="fill:#FF601F;" d="M478.026,318.727c0,4.264-0.383,8.515-1.141,12.693H337.049c-0.759-4.178-1.142-8.429-1.142-12.693
		c0-39.167,31.863-71.029,71.031-71.029C446.135,247.697,478.026,279.56,478.026,318.727z"/>
	<path style="fill:#3A2626;" d="M463.885,318.727c0,4.362-0.495,8.613-1.427,12.693H351.477c-0.934-4.079-1.429-8.331-1.429-12.693
		c0-31.369,25.519-56.888,56.89-56.888C438.339,261.838,463.885,287.357,463.885,318.727z"/>
	<g>
		<path style="fill:#595757;" d="M165.115,318.727c0,27.278-22.243,49.406-49.407,49.406c-27.281,0-49.347-22.128-49.347-49.406
			c0-27.222,22.065-49.348,49.347-49.348C142.872,269.379,165.115,291.505,165.115,318.727z"/>
		<path style="fill:#3E3A39;" d="M115.708,269.379c27.164,0,49.407,22.126,49.407,49.348c0,27.278-22.243,49.406-49.407,49.406
			V269.379z"/>
		<path style="fill:#DBDCDC;" d="M145.362,318.727c0,16.393-13.379,29.656-29.653,29.656c-16.335,0-29.654-13.263-29.654-29.656
			c0-16.337,13.319-29.54,29.654-29.54C131.983,289.186,145.362,302.39,145.362,318.727z"/>
		<path style="fill:#C5C5C6;" d="M115.708,289.186c16.275,0,29.653,13.204,29.653,29.54c0,16.393-13.379,29.656-29.653,29.656
			V289.186z"/>
	</g>
	<g>
		<path style="fill:#595757;" d="M456.344,318.727c0,27.278-22.244,49.406-49.407,49.406c-27.281,0-49.346-22.128-49.346-49.406
			c0-27.222,22.065-49.348,49.346-49.348C434.1,269.379,456.344,291.505,456.344,318.727z"/>
		<path style="fill:#3E3A39;" d="M406.937,269.379c27.164,0,49.407,22.126,49.407,49.348c0,27.278-22.244,49.406-49.407,49.406
			V269.379z"/>
		<path style="fill:#DBDCDC;" d="M436.589,318.727c0,16.393-13.379,29.656-29.653,29.656c-16.335,0-29.654-13.263-29.654-29.656
			c0-16.337,13.319-29.54,29.654-29.54C423.21,289.186,436.589,302.39,436.589,318.727z"/>
		<path style="fill:#C5C5C6;" d="M406.937,289.186c16.274,0,29.653,13.204,29.653,29.54c0,16.393-13.379,29.656-29.653,29.656
			V289.186z"/>
	</g>
	<g>
		<path style="fill:#2D586D;" d="M304.687,163.429c-29.682,0.425-56.601,1.176-69.608,2.477
			c-20.457,2.045-42.024,18.77-57.476,33.643c-13.029,12.542-9.448,10.344-9.448,10.344c-2.142,2.345-2.697,5.735-1.417,8.641
			c1.282,2.905,4.159,4.782,7.336,4.782h13.239h117.374V163.429z"/>
		<path style="fill:#2D586D;" d="M324.485,163.192v60.124h94.883c4.428,0,8.017-3.59,8.017-8.015v-44.284
			c0-2.131-0.846-4.171-2.354-5.675c-1.506-1.503-3.549-2.345-5.678-2.342C419.352,163.001,375.479,162.701,324.485,163.192z"/>
	</g>
	<rect x="489.939" y="237.595" style="fill:#FF1F1F;" width="16.97" height="22.626"/>
	<rect x="489.939" y="260.221" style="fill:#FFFFFF;" width="16.97" height="14.143"/>
	<path style="fill:#FFFFFF;" d="M15.832,266.121c0,0-1.414-18.382,5.656-21.21c7.071-2.828,24.041-8.485,22.626-2.828
		C42.7,247.739,37.044,264.708,15.832,266.121z"/>
</g>
</svg>
