<?xml version="1.0" encoding="iso-8859-1"?>
<!-- Generator: Adobe Illustrator 18.1.1, SVG Export Plug-In . SVG Version: 6.00 Build 0)  -->
<svg version="1.1" id="_x31_1" xmlns="http://www.w3.org/2000/svg" xmlns:xlink="http://www.w3.org/1999/xlink" x="0px" y="0px"
	 viewBox="0 0 512 512" style="enable-background:new 0 0 512 512;" xml:space="preserve">
<g>
	<path style="fill:#FFE81F;" d="M61.817,332.413L0,324.918v-12.488l6.869-6.87v-55.574c0,0,18.107-22.48,40.587-26.226
		c22.478-3.747,92.415-9.989,92.415-9.989s42.462-45.586,66.816-51.828c24.352-6.245,185.456-12.489,228.541-0.628l-3.746,10.615
		c0,0,56.198,36.22,61.196,39.964c4.995,3.749,6.867,10.617,6.867,18.11c0,7.494,0,22.478,0,27.476c0,4.996,8.74,9.366,10.616,15.61
		c1.873,6.244,3.519,27.15-1.477,31.524c-4.998,4.372-42.857,10.938-42.857,10.938l-99.911,4.998l-200.441,2.495L61.817,332.413z"/>
	<path style="fill:#E2C914;" d="M61.817,332.413l103.659-9.366l200.441-2.495l99.911-4.998c0,0,37.859-6.566,42.857-10.938
		c4.996-4.374,3.35-25.28,1.477-31.524c-1.876-6.244-10.616-10.614-10.616-15.61c0-4.513,0-17.176,0-25.105
		c-68.883,8.172-344.087,42.699-344.087,42.699s-23.385-22.152-51.693-17.231C56.088,266.137,50.842,312,50.842,312L0,312.431
		v12.488L61.817,332.413z"/>
	<path style="fill:#CEB315;" d="M417.61,259.078c-54.156,3.693-55.386,49.23-55.386,49.23l-296.612,9.847
		c0,0-40.709,1.334-65.612,1.546v5.217l61.817,7.494l103.659-9.366l200.441-2.495l99.911-4.998c0,0,37.859-6.566,42.857-10.938
		c3.714-3.252,3.756-15.639,2.764-24.345l-40.918,7.112C470.531,287.383,456.993,256.616,417.61,259.078z"/>
	<path style="fill:#7C732F;" d="M107.714,267.471c-26.035,0-47.144,21.109-47.144,47.144c0,6.227,1.217,12.162,3.408,17.603
		l89.928-8.126c0.624-3.062,0.952-6.23,0.952-9.477C154.858,288.579,133.752,267.471,107.714,267.471z"/>
	<path style="fill:#7C732F;" d="M465.828,314.615c0-26.035-21.109-47.144-47.146-47.144c-26.036,0-47.146,21.109-47.146,47.144
		c0,1.909,0.129,3.785,0.349,5.634l93.915-4.696C465.811,315.239,465.828,314.931,465.828,314.615z"/>
	<g>
		<path style="fill:#595757;" d="M150.513,314.591c0,23.631-19.267,42.799-42.799,42.799c-23.634,0-42.749-19.169-42.749-42.799
			c0-23.581,19.115-42.749,42.749-42.749C131.246,271.842,150.513,291.01,150.513,314.591z"/>
		<path style="fill:#3E3A39;" d="M107.714,271.842c23.531,0,42.799,19.167,42.799,42.749c0,23.631-19.267,42.799-42.799,42.799
			V271.842z"/>
		<path style="fill:#DBDCDC;" d="M133.402,314.591c0,14.202-11.59,25.688-25.688,25.688c-14.151,0-25.689-11.486-25.689-25.688
			c0-14.151,11.539-25.591,25.689-25.591C121.812,289,133.402,300.441,133.402,314.591z"/>
		<path style="fill:#C5C5C6;" d="M107.714,289c14.098,0,25.688,11.44,25.688,25.591c0,14.202-11.59,25.688-25.688,25.688V289z"/>
	</g>
	<g>
		<path style="fill:#595757;" d="M461.481,314.591c0,23.631-19.269,42.799-42.799,42.799c-23.633,0-42.748-19.169-42.748-42.799
			c0-23.581,19.115-42.749,42.748-42.749C442.212,271.842,461.481,291.01,461.481,314.591z"/>
		<path style="fill:#3E3A39;" d="M418.682,271.842c23.53,0,42.799,19.167,42.799,42.749c0,23.631-19.269,42.799-42.799,42.799
			V271.842z"/>
		<path style="fill:#DBDCDC;" d="M444.371,314.591c0,14.202-11.593,25.688-25.689,25.688c-14.151,0-25.689-11.486-25.689-25.688
			c0-14.151,11.539-25.591,25.689-25.591C432.778,289,444.371,300.441,444.371,314.591z"/>
		<path style="fill:#C5C5C6;" d="M418.682,289c14.096,0,25.689,11.44,25.689,25.591c0,14.202-11.593,25.688-25.689,25.688V289z"/>
	</g>
	<path d="M168.997,228.027c-2.101,0.049-4.023-1.163-4.888-3.075c-0.865-1.913-0.504-4.156,0.918-5.702
		c0,0,1.371-1.841,12.873-13.979c13.762-14.526,30.087-30.826,35.402-32.345c25.846-7.386,169.846-6.154,176-3.695
		c6.151,2.464,33.23,25.849,35.691,35.696c1.231,4.92,3.693,17.229-51.692,18.46c-23.808,0.529-131.99,2.994-185.895,4.222
		C168.822,228.03,168.997,228.027,168.997,228.027z"/>
	<path d="M486.197,207.496c-14.99-9.945-49.791-32.388-54.234-35.256l-9.432,3.143l49.229,36.923L486.197,207.496z"/>
	<path style="fill:#FFFFFF;" d="M15.152,268.925c0,0,44.307-17.231,60.309-32.001c-20.851,0-45.652,6.052-49.272,10.288
		C21.306,252.923,15.152,259.199,15.152,268.925z"/>
	<polygon style="fill:#CEB315;" points="184.996,308.308 192.382,299.694 347.456,294.769 	"/>
	<polygon style="fill:#CEB315;" points="26.229,284.924 36.073,278.77 36.073,305.848 	"/>
	<path style="fill:#E54A64;" d="M495.145,223.385l-19.3,3.735c-2.317,0.45-4.049,2.395-4.225,4.747
		c-0.177,2.356,1.244,4.535,3.47,5.322l20.056,7.118V223.385z"/>
	<g>
		<path style="fill:#514F41;" d="M282.225,177.006c-33.304,0.759-57.677,2.44-66.068,4.704c-1.163,0.626-7.862,4.895-31.558,29.908
			c-2.731,2.88-4.873,5.168-6.552,6.97l9.15-0.209c22.467-0.511,59.532-1.356,95.028-2.164V177.006z"/>
		<path style="fill:#514F41;" d="M416.053,207.215c-0.392-1.239-3.624-6.548-13.748-16.092
			c-7.552-7.121-13.814-11.781-16.038-13.093c-5.098-0.646-28.172-1.471-62.002-1.471c-4.672,0-9.249,0.014-13.731,0.044v38.969
			c28.559-0.648,52.769-1.195,62.563-1.417c32.811-0.725,41.178-5.404,42.981-6.834
			C416.068,207.277,416.056,207.242,416.053,207.215z"/>
	</g>
</g>
</svg>
